<svg xmlns="http://www.w3.org/2000/svg" viewBox="0 0 64 64">
  <defs>
    <mask id="m">
      <rect width="64" height="64" fill="#fff"/>
      <path fill="#000" d="m 22.637699,24.910088 a 1.6720044,1.7615046 0 0 0 -1.670005,1.761504 1.6720044,1.7615046 0 0 0 1.670005,1.761505 1.6720044,1.7615046 0 0 0 1.670504,-1.761505 1.6720044,1.7615046 0 0 0 -1.670004,-1.761504 z m 16.895044,0 a 1.6720044,1.7615046 0 0 0 -1.670005,1.761504 1.6720044,1.7615046 0 0 0 1.670005,1.761505 1.6720044,1.7615046 0 0 0 1.675004,-1.761505 1.6720044,1.7615046 0 0 0 -1.675004,-1.761504 z"/>
      <path fill="#000" d="m 25.452706,25.369089 -6.214016,1.666004 0.178,0.666002 6.215016,-1.666004 z m 11.76003,0 -0.179,0.666002 6.213516,1.666004 0.179001,-0.666002 z m -11.138029,1.004003 -6.249516,3.609509 0.345001,0.596502 6.248516,-3.60901 z m 10.519528,0 -0.345001,0.597001 6.249016,3.60901 0.345001,-0.596502 z m -10.062526,1.197503 -4.303512,4.309511 c 0.293001,0.037 0.572002,0.0835 0.838503,0.1355 l 3.95251,-3.95801 z m 9.605025,0 -0.487002,0.487001 5.404514,5.413014 c 0.306001,-0.02 0.618502,-0.0335 0.935003,-0.04 z m -9.396025,1.569004 -1.978505,3.430009 c 0.205501,0.1015 0.407001,0.213 0.602502,0.336001 L 27.338211,29.4836 Z m 9.187524,0 -0.597501,0.344001 2.643506,4.584012 c 0.049,-0.0195 0.0965,-0.0425 0.146501,-0.0605 0.155,-0.0615 0.332501,-0.116501 0.518501,-0.168001 z"/>
      <path fill="#000" d="m 36.630735,25.436589 a 5.368014,5.1085133 0 0 1 -5.368014,5.109014 5.368014,5.1085133 0 0 1 -5.368514,-5.109014 5.368014,5.1085133 0 0 1 5.368514,-5.108513 5.368014,5.1085133 0 0 1 5.367514,5.108513 z"/>
      <path fill="#000" d="m 33.553727,24.515587 c -0.180001,-0.466501 -0.180001,-1.399504 -0.720002,-1.399504 -0.540001,0 -1.040003,-0.350001 -1.571004,-0.350001 -0.531501,0 -1.030003,0.350001 -1.571004,0.350001 -0.540002,0 -0.540002,0.933003 -0.720002,1.400004 -0.18,0.466001 2.291006,1.982005 2.291006,1.982005 0,0 2.471006,-1.516004 2.291006,-1.982505 z"/>
      <path fill="#000" d="m 14.831678,42.436634 a 1.0700028,1.1240029 0 0 0 -0.627501,0.2385 h 1.280003 a 1.0700028,1.1240029 0 0 0 -0.652502,-0.238 z m 10.810028,0 a 1.0700028,1.1240029 0 0 0 -0.628001,0.2385 h 1.281003 a 1.0700028,1.1240029 0 0 0 -0.653502,-0.238 z"/>
      <path fill="#000" d="m 16.601183,42.610134 -0.242001,0.065 h 0.260001 z m 7.58602,0 -0.0175,0.065 h 0.26 z"/>
      <path fill="#000" d="m 20.349193,39.516626 a 3.4340089,3.2600085 0 0 0 -3.423009,3.158508 h 6.841017 a 3.4340089,3.2600085 0 0 0 -3.418008,-3.158508 z"/>
      <path fill="#000" d="m 20.349193,41.06963 c -0.340001,0 -0.658502,0.225001 -1.004003,0.225001 -0.345501,0 -0.348001,0.594001 -0.463001,0.891502 -0.04,0.104 0.134,0.291501 0.367501,0.489001 h 2.198005 c 0.234001,-0.1975 0.404001,-0.385001 0.363501,-0.489001 -0.115,-0.297501 -0.113,-0.891502 -0.458501,-0.891502 -0.345001,0 -0.663502,-0.225001 -1.003502,-0.225001 z"/>
      <path fill="#000" d="m 37.010236,44.86064 a 1.143503,1.2020031 0 0 0 -1.143003,1.203003 1.143503,1.2020031 0 0 0 1.143003,1.203003 1.143503,1.2020031 0 0 0 1.142503,-1.203003 1.143503,1.2020031 0 0 0 -1.142503,-1.203003 z m 11.55503,0 a 1.143503,1.2020031 0 0 0 -1.143003,1.203003 1.143503,1.2020031 0 0 0 1.143003,1.203003 1.143503,1.2020031 0 0 0 1.142503,-1.203003 1.143503,1.2020031 0 0 0 -1.142503,-1.203003 z"/>
      <path fill="#000" d="m 38.907241,45.06864 -4.250011,1.138503 0.179,0.666002 4.249011,-1.138503 z m 8.098021,0 -0.179001,0.666002 4.250012,1.138503 0.179,-0.666002 z m -7.70002,0.696002 -4.272011,2.463007 0.344001,0.596501 4.271511,-2.462006 z m 7.302519,0 -0.345001,0.597502 4.271511,2.462006 0.345001,-0.596501 z"/>
      <path fill="#000" d="m 46.578761,45.221641 a 3.6715096,3.4850091 0 0 1 -3.67101,3.485009 3.6715096,3.4850091 0 0 1 -3.671509,-3.485009 3.6715096,3.4850091 0 0 1 3.671509,-3.485009 3.6715096,3.4850091 0 0 1 3.67101,3.485009 z"/>
      <path fill="#000" d="m 44.474255,44.592639 c -0.123,-0.318001 -0.123,-0.955002 -0.492501,-0.955002 -0.369001,0 -0.710002,-0.238001 -1.074003,-0.238001 -0.363501,0 -0.705002,0.238501 -1.074503,0.238501 -0.369,0 -0.369,0.636501 -0.492501,0.955002 -0.123,0.318001 1.567004,1.352004 1.567004,1.352004 0,0 1.690005,-1.034003 1.566504,-1.352504 z"/>
      <path fill="#000" d="m 31.263221,19.812575 c -3.230508,0 -5.885015,2.511006 -5.885015,5.626014 0,3.115008 2.654507,5.626015 5.885015,5.626015 3.231008,0 5.885515,-2.511007 5.885515,-5.626015 0,-3.115008 -2.655507,-5.626014 -5.885515,-5.626014 z m 0,1.034502 c 2.699007,0 4.851513,2.064006 4.851513,4.591512 0,2.528007 -2.152506,4.591012 -4.851513,4.591012 -2.698507,0 -4.851513,-2.063005 -4.851513,-4.591012 0,-2.527506 2.153006,-4.591512 4.851513,-4.591512 z M 20.349193,38.997125 c -2.127006,0 -3.890011,1.630004 -3.947511,3.678009 h 1.034503 c 0.056,-1.460004 1.318503,-2.644007 2.913008,-2.644007 1.595004,0 2.856007,1.184003 2.912007,2.644007 h 1.034003 c -0.0565,-2.047505 -1.820005,-3.678009 -3.94601,-3.678009 z m 22.559558,2.223505 c -2.292506,0 -4.190011,1.780005 -4.190011,3.999011 0,2.220006 1.897505,4.00301 4.190011,4.00301 2.293006,0 4.189511,-1.783504 4.189511,-4.00301 0,-2.219006 -1.896505,-3.999011 -4.190011,-3.999011 z m 0,1.034503 c 1.762505,0 3.155009,1.333504 3.155009,2.965008 0,1.630004 -1.392504,2.968507 -3.155009,2.968507 -1.762004,0 -3.155008,-1.338503 -3.155008,-2.969007 0,-1.630004 1.393004,-2.965008 3.155008,-2.965008 z"/>
      <path fill="#000" d="m 22.745699,17.90407 a 3.0420079,3.0420079 0 0 0 -2.191006,0.933002 3.1805083,3.1805083 0 0 0 -0.767502,1.297503 3.1940083,3.1940083 0 0 0 -0.135,1.099003 3.1985083,3.1985083 0 0 0 1.360503,2.461507 3.1055081,3.1055081 0 0 0 0.667502,0.350501 3.0280079,3.0280079 0 0 0 2.275006,-0.055 3.0475079,3.0475079 0 0 0 0.765502,-0.477001 3.1475082,3.1475082 0 0 0 0.680002,-0.803502 3.1980083,3.1980083 0 0 0 0.413001,-2.118005 3.2155084,3.2155084 0 0 0 -0.413501,-1.158503 3.1980083,3.1980083 0 0 0 -0.918503,-0.986503 3.1055081,3.1055081 0 0 0 -0.668001,-0.350001 3.0235079,3.0235079 0 0 0 -1.067003,-0.193 z m 16.735043,0 a 3.0535079,3.0535079 0 0 0 -1.066002,0.1945 3.0375079,3.0375079 0 0 0 -0.788502,0.439001 3.1385082,3.1385082 0 0 0 -0.715002,0.769002 3.1980083,3.1980083 0 0 0 -0.466002,2.400007 3.2005083,3.2005083 0 0 0 0.844003,1.600004 3.1650082,3.1650082 0 0 0 0.714002,0.548001 3.070508,3.070508 0 0 0 0.852502,0.320001 3.0050078,3.0050078 0 0 0 0.942502,0.0485 3.0300079,3.0300079 0 0 0 1.655005,-0.711002 3.1600082,3.1600082 0 0 0 0.753001,-0.936002 3.1915083,3.1915083 0 0 0 0.357501,-1.826005 3.2155084,3.2155084 0 0 0 -0.432001,-1.315003 3.1950083,3.1950083 0 0 0 -1.043002,-1.069003 3.090008,3.090008 0 0 0 -0.832503,-0.361001 3.0105078,3.0105078 0 0 0 -0.775002,-0.101 z m -16.735043,1.030002 h 0.001 a 2.1575056,2.1575056 0 0 1 0.315001,0.024 2.0030052,2.0030052 0 0 1 0.671501,0.231001 2.0540053,2.0540053 0 0 1 0.478002,0.366001 2.1130055,2.1130055 0 0 1 0.445001,0.679002 2.1625056,2.1625056 0 0 1 0.1605,0.726502 2.2735059,2.2735059 0 0 1 -0.091,0.752002 2.1625056,2.1625056 0 0 1 -0.380501,0.725001 2.1130055,2.1130055 0 0 1 -0.612002,0.517502 2.0345053,2.0345053 0 0 1 -1.301503,0.23 2.0280053,2.0280053 0 0 1 -1.281003,-0.748502 2.1260055,2.1260055 0 0 1 -0.380001,-0.725001 2.1875057,2.1875057 0 0 1 -0.093,-0.640002 2.2700059,2.2700059 0 0 1 0.0935,-0.640002 2.1650056,2.1650056 0 0 1 0.380001,-0.724502 2.1090055,2.1090055 0 0 1 0.610001,-0.517001 2.0310053,2.0310053 0 0 1 0.878503,-0.253001 c 0.035,-0.002 0.0705,-0.0025 0.106,-0.0025 z m 16.735043,0 a 2.0440053,2.0440053 0 0 1 0.615002,0.0955 2.0180053,2.0180053 0 0 1 0.700002,0.389501 2.0950055,2.0950055 0 0 1 0.504001,0.629001 2.1500056,2.1500056 0 0 1 0.239501,0.803502 2.2360058,2.2360058 0 0 1 -0.240001,1.244504 2.1400056,2.1400056 0 0 1 -0.503501,0.629001 2.0730054,2.0730054 0 0 1 -0.510002,0.318001 2.0165052,2.0165052 0 0 1 -1.609004,0 2.0340053,2.0340053 0 0 1 -0.657501,-0.455501 2.1130055,2.1130055 0 0 1 -0.444002,-0.679002 2.1630056,2.1630056 0 0 1 -0.16,-0.726002 2.2700059,2.2700059 0 0 1 0.0395,-0.545001 2.1860057,2.1860057 0 0 1 0.311501,-0.766002 2.1250055,2.1250055 0 0 1 0.559001,-0.575002 2.0525053,2.0525053 0 0 1 0.639502,-0.2955 2.0175053,2.0175053 0 0 1 0.516001,-0.067 z"/>
      <path fill="#000" d="m 21.885197,19.003073 a 1.2715033,1.3220034 0 0 0 -1.272504,1.320003 1.2715033,1.3220034 0 0 0 1.272504,1.325003 1.2715033,1.3220034 0 0 0 1.272503,-1.325003 1.2715033,1.3220034 0 0 0 -1.272503,-1.320003 z m 16.726543,0 a 1.2715033,1.3220034 0 0 0 -1.272503,1.320003 1.2715033,1.3220034 0 0 0 1.272503,1.325003 1.2715033,1.3220034 0 0 0 1.271503,-1.325003 1.2715033,1.3220034 0 0 0 -1.271503,-1.320003 z M 14.350177,38.668124 a 0.81300212,0.8435022 0 0 0 -0.812502,0.843502 0.81300212,0.8435022 0 0 0 0.813502,0.844002 0.81300212,0.8435022 0 0 0 0.813502,-0.844002 0.81300212,0.8435022 0 0 0 -0.813502,-0.843502 z m 10.810028,0.121 a 0.81300212,0.8435022 0 0 0 -0.813002,0.844002 0.81300212,0.8435022 0 0 0 0.813502,0.843502 0.81300212,0.8435022 0 0 0 0.814502,-0.843502 0.81300212,0.8435022 0 0 0 -0.815002,-0.844002 z m 11.33503,2.043005 a 0.86950226,0.90200235 0 0 0 -0.870003,0.899503 0.86950226,0.90200235 0 0 0 0.870003,0.904002 0.86950226,0.90200235 0 0 0 0.870002,-0.904002 0.86950226,0.90200235 0 0 0 -0.870002,-0.899503 z m 11.62353,0.116001 a 0.86950226,0.90200235 0 0 0 -0.870002,0.905002 0.86950226,0.90200235 0 0 0 0.870002,0.900002 0.86950226,0.90200235 0 0 0 0.870002,-0.900002 0.86950226,0.90200235 0 0 0 -0.870002,-0.905002 z"/>
    </mask>
  </defs>
  <g mask="url(#m)">
    <path fill="#000" d="m 30.557219,8.1465443 c -2.455006,0 -4.860513,0.2835007 -6.293016,0.8535022 -3.945011,1.4440035 -6.975018,5.3875145 -7.873021,10.1650265 -1.182503,5.593014 -1.112003,9.970526 -2.286006,14.089037 a 6.7945177,6.7945177 0 0 1 1.764505,-0.970003 c 0.917002,-0.363001 2.454506,-0.545001 4.02451,-0.545001 1.570004,0 3.175009,0.1825 4.215511,0.545001 2.285506,0.835002 4.088511,2.980008 4.835013,5.642015 h 4.859513 c 0.995502,-1.840505 2.515006,-3.261509 4.316511,-3.91901 1.959505,-0.777002 6.582517,-0.775002 8.808523,0 0.2415,0.088 0.476001,0.195 0.707002,0.3095 C 46.10526,29.883601 46.29976,25.241089 45.015257,19.165073 44.117754,14.387561 41.086747,10.44405 37.142236,9.0000465 35.515232,8.432045 33.011726,8.1470443 30.557219,8.1465443 Z"/>
    <path fill="#000" d="m 22.637699,24.910088 a 1.6720044,1.7615046 0 0 0 -1.670005,1.761504 1.6720044,1.7615046 0 0 0 1.670005,1.761505 1.6720044,1.7615046 0 0 0 1.670504,-1.761505 1.6720044,1.7615046 0 0 0 -1.670004,-1.761504 z m 16.895044,0 a 1.6720044,1.7615046 0 0 0 -1.670005,1.761504 1.6720044,1.7615046 0 0 0 1.670005,1.761505 1.6720044,1.7615046 0 0 0 1.675004,-1.761505 1.6720044,1.7615046 0 0 0 -1.675004,-1.761504 z"/>
    <path fill="#000" d="m 25.452706,25.369089 -6.214016,1.666004 0.178,0.666002 6.215016,-1.666004 z m 11.76003,0 -0.179,0.666002 6.213516,1.666004 0.179001,-0.666002 z m -11.138029,1.004003 -6.249516,3.609509 0.345001,0.596502 6.248516,-3.60901 z m 10.519528,0 -0.345001,0.597001 6.249016,3.60901 0.345001,-0.596502 z m -10.062526,1.197503 -4.303512,4.309511 c 0.293001,0.037 0.572002,0.0835 0.838503,0.1355 l 3.95251,-3.95801 z m 9.605025,0 -0.487002,0.487001 5.404514,5.413014 c 0.306001,-0.02 0.618502,-0.0335 0.935003,-0.04 z m -9.396025,1.569004 -1.978505,3.430009 c 0.205501,0.1015 0.407001,0.213 0.602502,0.336001 L 27.338211,29.4836 Z m 9.187524,0 -0.597501,0.344001 2.643506,4.584012 c 0.049,-0.0195 0.0965,-0.0425 0.146501,-0.0605 0.155,-0.0615 0.332501,-0.116501 0.518501,-0.168001 z"/>
    <path fill="#000" d="m 36.630735,25.436589 a 5.368014,5.1085133 0 0 1 -5.368014,5.109014 5.368014,5.1085133 0 0 1 -5.368514,-5.109014 5.368014,5.1085133 0 0 1 5.368514,-5.108513 5.368014,5.1085133 0 0 1 5.367514,5.108513 z"/>
    <path fill="#000" d="m 33.553727,24.515587 c -0.180001,-0.466501 -0.180001,-1.399504 -0.720002,-1.399504 -0.540001,0 -1.040003,-0.350001 -1.571004,-0.350001 -0.531501,0 -1.030003,0.350001 -1.571004,0.350001 -0.540002,0 -0.540002,0.933003 -0.720002,1.400004 -0.18,0.466001 2.291006,1.982005 2.291006,1.982005 0,0 2.471006,-1.516004 2.291006,-1.982505 z"/>
    <path fill="#000" d="m 19.894691,31.739106 c -1.570004,0 -3.108008,0.182 -4.02501,0.545001 -2.523007,0.922002 -4.458512,3.439009 -5.032513,6.487517 -0.300001,1.413004 -0.472501,2.695507 -0.619002,3.90351 h 19.543051 c -0.1465,-1.208003 -0.315001,-2.490006 -0.615002,-3.90351 -0.573501,-3.048508 -2.513506,-5.565015 -5.037013,-6.487017 -1.041002,-0.362501 -2.645007,-0.545001 -4.215011,-0.545001 z"/>
    <path fill="#000" d="m 14.831678,42.436634 a 1.0700028,1.1240029 0 0 0 -0.627501,0.2385 h 1.280003 a 1.0700028,1.1240029 0 0 0 -0.652502,-0.238 z m 10.810028,0 a 1.0700028,1.1240029 0 0 0 -0.628001,0.2385 h 1.281003 a 1.0700028,1.1240029 0 0 0 -0.653502,-0.238 z"/>
    <path fill="#000" d="m 16.601183,42.610134 -0.242001,0.065 h 0.260001 z m 7.58602,0 -0.0175,0.065 h 0.26 z"/>
    <path fill="#000" d="m 20.349193,39.516626 a 3.4340089,3.2600085 0 0 0 -3.423009,3.158508 h 6.841017 a 3.4340089,3.2600085 0 0 0 -3.418008,-3.158508 z"/>
    <path fill="#000" d="m 20.349193,41.06963 c -0.340001,0 -0.658502,0.225001 -1.004003,0.225001 -0.345501,0 -0.348001,0.594001 -0.463001,0.891502 -0.04,0.104 0.134,0.291501 0.367501,0.489001 h 2.198005 c 0.234001,-0.1975 0.404001,-0.385001 0.363501,-0.489001 -0.115,-0.297501 -0.113,-0.891502 -0.458501,-0.891502 -0.345001,0 -0.663502,-0.225001 -1.003502,-0.225001 z"/>
    <path fill="#000" d="m 45.868259,0.75002499 -27.869073,0.082 A 0.6900018,0.6900018 0 0 0 17.462685,1.0920259 L 0.14764,22.958083 A 0.6900018,0.6900018 0 0 0 0.01763966,23.538084 L 6.297656,50.719655 a 0.6900018,0.6900018 0 0 0 0.376501,0.467501 l 25.142565,12.030532 a 0.6900018,0.6900018 0 0 0 0.597502,-0.005 L 57.488289,51.035156 a 0.6900018,0.6900018 0 0 0 0.372001,-0.471501 l 6.123516,-27.216071 a 0.6900018,0.6900018 0 0 0 -0.134,-0.580002 L 46.41026,1.0050257 A 0.6900018,0.6900018 0 0 0 45.868759,0.75002499 Z M 45.539758,2.1300286 62.564802,23.370084 56.587787,49.941153 32.115223,61.829184 7.5696593,50.088153 1.4376434,23.551584 18.336687,2.2080288 Z"/>
    <path fill="#000" d="m 53.322278,47.885148 c -0.303,-2.062006 -0.450001,-4.305012 -1.009502,-6.943518 -0.614002,-3.259009 -2.686507,-5.950016 -5.384014,-6.935018 -2.226006,-0.775002 -6.848518,-0.777002 -8.808023,0 -2.697507,0.985002 -4.770013,3.676009 -5.384014,6.935018 -0.559002,2.639006 -0.706502,4.881512 -1.009503,6.943518"/>
    <path fill="#000" d="m 37.010236,44.86064 a 1.143503,1.2020031 0 0 0 -1.143003,1.203003 1.143503,1.2020031 0 0 0 1.143003,1.203003 1.143503,1.2020031 0 0 0 1.142503,-1.203003 1.143503,1.2020031 0 0 0 -1.142503,-1.203003 z m 11.55503,0 a 1.143503,1.2020031 0 0 0 -1.143003,1.203003 1.143503,1.2020031 0 0 0 1.143003,1.203003 1.143503,1.2020031 0 0 0 1.142503,-1.203003 1.143503,1.2020031 0 0 0 -1.142503,-1.203003 z"/>
    <path fill="#000" d="m 38.907241,45.06864 -4.250011,1.138503 0.179,0.666002 4.249011,-1.138503 z m 8.098021,0 -0.179001,0.666002 4.250012,1.138503 0.179,-0.666002 z m -7.70002,0.696002 -4.272011,2.463007 0.344001,0.596501 4.271511,-2.462006 z m 7.302519,0 -0.345001,0.597502 4.271511,2.462006 0.345001,-0.596501 z"/>
    <path fill="#000" d="m 46.578761,45.221641 a 3.6715096,3.4850091 0 0 1 -3.67101,3.485009 3.6715096,3.4850091 0 0 1 -3.671509,-3.485009 3.6715096,3.4850091 0 0 1 3.671509,-3.485009 3.6715096,3.4850091 0 0 1 3.67101,3.485009 z"/>
    <path fill="#000" d="m 44.474255,44.592639 c -0.123,-0.318001 -0.123,-0.955002 -0.492501,-0.955002 -0.369001,0 -0.710002,-0.238001 -1.074003,-0.238001 -0.363501,0 -0.705002,0.238501 -1.074503,0.238501 -0.369,0 -0.369,0.636501 -0.492501,0.955002 -0.123,0.318001 1.567004,1.352004 1.567004,1.352004 0,0 1.690005,-1.034003 1.566504,-1.352504 z"/>
    <path fill="#000" d="m 31.263221,19.812575 c -3.230508,0 -5.885015,2.511006 -5.885015,5.626014 0,3.115008 2.654507,5.626015 5.885015,5.626015 3.231008,0 5.885515,-2.511007 5.885515,-5.626015 0,-3.115008 -2.655507,-5.626014 -5.885515,-5.626014 z m 0,1.034502 c 2.699007,0 4.851513,2.064006 4.851513,4.591512 0,2.528007 -2.152506,4.591012 -4.851513,4.591012 -2.698507,0 -4.851513,-2.063005 -4.851513,-4.591012 0,-2.527506 2.153006,-4.591512 4.851513,-4.591512 z M 20.349193,38.997125 c -2.127006,0 -3.890011,1.630004 -3.947511,3.678009 h 1.034503 c 0.056,-1.460004 1.318503,-2.644007 2.913008,-2.644007 1.595004,0 2.856007,1.184003 2.912007,2.644007 h 1.034003 c -0.0565,-2.047505 -1.820005,-3.678009 -3.94601,-3.678009 z m 22.559558,2.223505 c -2.292506,0 -4.190011,1.780005 -4.190011,3.999011 0,2.220006 1.897505,4.00301 4.190011,4.00301 2.293006,0 4.189511,-1.783504 4.189511,-4.00301 0,-2.219006 -1.896505,-3.999011 -4.190011,-3.999011 z m 0,1.034503 c 1.762505,0 3.155009,1.333504 3.155009,2.965008 0,1.630004 -1.392504,2.968507 -3.155009,2.968507 -1.762004,0 -3.155008,-1.338503 -3.155008,-2.969007 0,-1.630004 1.393004,-2.965008 3.155008,-2.965008 z"/>
    <path fill="#000" d="m 7.9811604,42.675134 v 1.380004 H 32.212223 c 0.06,-0.448501 0.126501,-0.908003 0.203001,-1.380004 z m 12.2770316,5.171514 v 1.376003 h 35.832094 v -1.376003 h -2.772508 l 0.005,0.038 H 31.726722 l 0.005,-0.038 z"/>
    <path fill="#000" d="m 22.745699,17.90407 a 3.0420079,3.0420079 0 0 0 -2.191006,0.933002 3.1805083,3.1805083 0 0 0 -0.767502,1.297503 3.1940083,3.1940083 0 0 0 -0.135,1.099003 3.1985083,3.1985083 0 0 0 1.360503,2.461507 3.1055081,3.1055081 0 0 0 0.667502,0.350501 3.0280079,3.0280079 0 0 0 2.275006,-0.055 3.0475079,3.0475079 0 0 0 0.765502,-0.477001 3.1475082,3.1475082 0 0 0 0.680002,-0.803502 3.1980083,3.1980083 0 0 0 0.413001,-2.118005 3.2155084,3.2155084 0 0 0 -0.413501,-1.158503 3.1980083,3.1980083 0 0 0 -0.918503,-0.986503 3.1055081,3.1055081 0 0 0 -0.668001,-0.350001 3.0235079,3.0235079 0 0 0 -1.067003,-0.193 z m 16.735043,0 a 3.0535079,3.0535079 0 0 0 -1.066002,0.1945 3.0375079,3.0375079 0 0 0 -0.788502,0.439001 3.1385082,3.1385082 0 0 0 -0.715002,0.769002 3.1980083,3.1980083 0 0 0 -0.466002,2.400007 3.2005083,3.2005083 0 0 0 0.844003,1.600004 3.1650082,3.1650082 0 0 0 0.714002,0.548001 3.070508,3.070508 0 0 0 0.852502,0.320001 3.0050078,3.0050078 0 0 0 0.942502,0.0485 3.0300079,3.0300079 0 0 0 1.655005,-0.711002 3.1600082,3.1600082 0 0 0 0.753001,-0.936002 3.1915083,3.1915083 0 0 0 0.357501,-1.826005 3.2155084,3.2155084 0 0 0 -0.432001,-1.315003 3.1950083,3.1950083 0 0 0 -1.043002,-1.069003 3.090008,3.090008 0 0 0 -0.832503,-0.361001 3.0105078,3.0105078 0 0 0 -0.775002,-0.101 z m -16.735043,1.030002 h 0.001 a 2.1575056,2.1575056 0 0 1 0.315001,0.024 2.0030052,2.0030052 0 0 1 0.671501,0.231001 2.0540053,2.0540053 0 0 1 0.478002,0.366001 2.1130055,2.1130055 0 0 1 0.445001,0.679002 2.1625056,2.1625056 0 0 1 0.1605,0.726502 2.2735059,2.2735059 0 0 1 -0.091,0.752002 2.1625056,2.1625056 0 0 1 -0.380501,0.725001 2.1130055,2.1130055 0 0 1 -0.612002,0.517502 2.0345053,2.0345053 0 0 1 -1.301503,0.23 2.0280053,2.0280053 0 0 1 -1.281003,-0.748502 2.1260055,2.1260055 0 0 1 -0.380001,-0.725001 2.1875057,2.1875057 0 0 1 -0.093,-0.640002 2.2700059,2.2700059 0 0 1 0.0935,-0.640002 2.1650056,2.1650056 0 0 1 0.380001,-0.724502 2.1090055,2.1090055 0 0 1 0.610001,-0.517001 2.0310053,2.0310053 0 0 1 0.878503,-0.253001 c 0.035,-0.002 0.0705,-0.0025 0.106,-0.0025 z m 16.735043,0 a 2.0440053,2.0440053 0 0 1 0.615002,0.0955 2.0180053,2.0180053 0 0 1 0.700002,0.389501 2.0950055,2.0950055 0 0 1 0.504001,0.629001 2.1500056,2.1500056 0 0 1 0.239501,0.803502 2.2360058,2.2360058 0 0 1 -0.240001,1.244504 2.1400056,2.1400056 0 0 1 -0.503501,0.629001 2.0730054,2.0730054 0 0 1 -0.510002,0.318001 2.0165052,2.0165052 0 0 1 -1.609004,0 2.0340053,2.0340053 0 0 1 -0.657501,-0.455501 2.1130055,2.1130055 0 0 1 -0.444002,-0.679002 2.1630056,2.1630056 0 0 1 -0.16,-0.726002 2.2700059,2.2700059 0 0 1 0.0395,-0.545001 2.1860057,2.1860057 0 0 1 0.311501,-0.766002 2.1250055,2.1250055 0 0 1 0.559001,-0.575002 2.0525053,2.0525053 0 0 1 0.639502,-0.2955 2.0175053,2.0175053 0 0 1 0.516001,-0.067 z"/>
    <path fill="#000" d="m 21.885197,19.003073 a 1.2715033,1.3220034 0 0 0 -1.272504,1.320003 1.2715033,1.3220034 0 0 0 1.272504,1.325003 1.2715033,1.3220034 0 0 0 1.272503,-1.325003 1.2715033,1.3220034 0 0 0 -1.272503,-1.320003 z m 16.726543,0 a 1.2715033,1.3220034 0 0 0 -1.272503,1.320003 1.2715033,1.3220034 0 0 0 1.272503,1.325003 1.2715033,1.3220034 0 0 0 1.271503,-1.325003 1.2715033,1.3220034 0 0 0 -1.271503,-1.320003 z M 14.350177,38.668124 a 0.81300212,0.8435022 0 0 0 -0.812502,0.843502 0.81300212,0.8435022 0 0 0 0.813502,0.844002 0.81300212,0.8435022 0 0 0 0.813502,-0.844002 0.81300212,0.8435022 0 0 0 -0.813502,-0.843502 z m 10.810028,0.121 a 0.81300212,0.8435022 0 0 0 -0.813002,0.844002 0.81300212,0.8435022 0 0 0 0.813502,0.843502 0.81300212,0.8435022 0 0 0 0.814502,-0.843502 0.81300212,0.8435022 0 0 0 -0.815002,-0.844002 z m 11.33503,2.043005 a 0.86950226,0.90200235 0 0 0 -0.870003,0.899503 0.86950226,0.90200235 0 0 0 0.870003,0.904002 0.86950226,0.90200235 0 0 0 0.870002,-0.904002 0.86950226,0.90200235 0 0 0 -0.870002,-0.899503 z m 11.62353,0.116001 a 0.86950226,0.90200235 0 0 0 -0.870002,0.905002 0.86950226,0.90200235 0 0 0 0.870002,0.900002 0.86950226,0.90200235 0 0 0 0.870002,-0.900002 0.86950226,0.90200235 0 0 0 -0.870002,-0.905002 z"/>
  </g>
</svg>
