<svg xmlns="http://www.w3.org/2000/svg" viewBox="0 0 32 32">
  <defs>
    <radialGradient r="14.572" fy="137.661" fx="223.196" cy="137.661" cx="223.196" gradientTransform="matrix(1.0857794,-0.03431182,0.03943781,1.2479887,-154.54194,-26.542647)" id="A" xlink:href="#Ac"><stop offset="0" stop-color="#fefefc"/><stop offset=".757" stop-color="#fefefc"/><stop offset="1" stop-color="#d4d4d4"/></radialGradient>
    <radialGradient r="14.572" fy="137.661" fx="223.196" cy="137.661" cx="223.196" gradientTransform="matrix(0.81524244,-0.03431182,0.02961133,1.2479887,-129.43743,-26.542647)" id="B" xlink:href="#Ac"><stop offset="0" stop-color="#fefefc"/><stop offset=".757" stop-color="#fefefc"/><stop offset="1" stop-color="#d4d4d4"/></radialGradient>
    <linearGradient id="C" xlink:href="#Ac"><stop offset="0" stop-color="#3e2a06"/><stop offset="1" stop-color="#ad780a"/></linearGradient>
    <linearGradient xlink:href="#C" id="D" x1="447.113" y1="364.09" x2="489.181" y2="300.828"/>
    <linearGradient xlink:href="#C" id="E" x1="442.039" y1="371.544" x2="490.122" y2="293.585"/>
    <clipPath id="F"><path d="M137.577 281.02c1.6-.663 3.398-.784 5.1-.47s3.31 1.05 4.743 2.022c2.864 1.946 4.988 4.778 7.023 7.58 4.672 6.434 9.17 13.002 13.245 19.83 3.306 5.538 6.344 11.257 10.164 16.453 2.494 3.392 5.307 6.54 7.813 9.922s4.728 7.056 5.84 11.117c1.444 5.277.885 11.093-1.627 15.953-1.767 3.42-4.476 6.352-7.772 8.34s-7.17 3.014-11.016 2.87c-6.114-.23-11.7-3.285-17.384-5.55-11.58-4.612-24.16-6.06-36.097-9.652-3.67-1.104-7.276-2.41-10.97-3.426-1.64-.45-3.31-.848-4.86-1.55s-3-1.75-3.862-3.217c-.666-1.134-.948-2.47-.93-3.786s.326-2.615.774-3.852c.896-2.474 2.343-4.714 3.32-7.157 1.595-3.99 1.882-8.388 1.667-12.68s-.91-8.545-1.205-12.83c-.13-1.914-.18-3.853.185-5.736s1.176-3.725 2.558-5.055c1.274-1.227 2.965-1.955 4.696-2.317s3.515-.377 5.284-.338 3.54.134 5.304-.01 3.533-.54 5.07-1.418c1.46-.834 2.654-2.075 3.644-3.434s1.79-2.846 2.61-4.314 1.668-2.932 2.742-4.226 2.39-2.423 3.943-3.067" fill="#402c07" fill-opacity="1" stroke="none"/></clipPath>
    <filter id="G" x="-.108" width="1.215" y="-.108" height="1.217" color-interpolation-filters="sRGB"><feGaussianBlur stdDeviation="3.924"/></filter>
    <filter id="H" color-interpolation-filters="sRGB"><feGaussianBlur stdDeviation="2.437"/></filter>
    <filter id="I" color-interpolation-filters="sRGB"><feGaussianBlur stdDeviation=".37"/></filter>
    <clipPath id="J"><path d="M248.06 184.612s-5.106 6.345-7.897 10.247-5.737 6.65-8.587 10.75-7.365 9.432-9.45 13.93-2.32 9.036-4.265 13.85-3.7 10.642-5.97 15.336-5.37 9.685-6.94 13.536-3.81 5.724-4.108 10.22-.577 8.317 3.772 16.772 17.236 22.007 24.242 27.925 9.39 7.225 14.602 8.526 13.856 2.998 16.73-1.27 2.272-5.965-.75-10.666-4.825-5.302-9.796-9.573-18.637-14.873-22.682-19.24-7.107-3.412-5.53-6.284-2.207-4.01-2.658-7.693c-.764-6.245.944-18.7 1.46-22.133s1.224-2.924 3.518-8.04 4.124-8.624 7.05-13.467 8.625-10.128 11.15-15.278 3.504-10.72 4.362-15.318 1.746-12.13 1.746-12.13z" fill="none" stroke="#729fcf" stroke-width=".125" stroke-miterlimit="4" stroke-dasharray="none" stroke-linejoin="miter" stroke-opacity="1"/></clipPath>
    <filter id="K" x="-.101" width="1.202" y="-.043" height="1.085" color-interpolation-filters="sRGB"><feGaussianBlur stdDeviation="1.132"/></filter>
    <clipPath id="L"><path d="M386.188 285.328c-.405-1.104-1.118-2.082-1.99-2.87s-1.9-1.392-2.983-1.852c-2.165-.92-4.52-1.26-6.832-1.696l-6.528-1.277c-2.27-.386-4.618-.632-6.865-.125-1.966.443-3.784 1.46-5.272 2.82s-2.65 3.056-3.485 4.9c-1.472 3.23-1.935 6.865-1.654 10.403.21 2.633.875 5.346 2.61 7.34 1.4 1.61 3.387 2.615 5.434 3.22 3.525 1.043 7.367.988 10.86-.155a28.59 28.59 0 0 0 14.33-10.779c1.14-1.65 2.112-3.448 2.553-5.403.336-1.5.348-3.08-.178-4.515" fill="none" stroke="#ce5c00" stroke-linejoin="miter" stroke-opacity="1" stroke-width="1" stroke-linecap="butt"/></clipPath>
    <filter id="M" x="-.07" width="1.141" y="-.151" height="1.301" color-interpolation-filters="sRGB"><feGaussianBlur stdDeviation="1.025"/></filter>
    <clipPath id="N"><path d="M386.188 285.328c-.405-1.104-1.118-2.082-1.99-2.87s-1.9-1.392-2.983-1.852c-2.165-.92-4.52-1.26-6.832-1.696l-6.528-1.277c-2.27-.386-4.618-.632-6.865-.125-1.966.443-3.784 1.46-5.272 2.82s-2.65 3.056-3.485 4.9c-1.472 3.23-1.935 6.865-1.654 10.403.21 2.633.875 5.346 2.61 7.34 1.4 1.61 3.387 2.615 5.434 3.22 3.525 1.043 7.367.988 10.86-.155a28.59 28.59 0 0 0 14.33-10.779c1.14-1.65 2.112-3.448 2.553-5.403.336-1.5.348-3.08-.178-4.515" fill="none" stroke="#ce5c00" stroke-linejoin="miter" stroke-opacity="1" stroke-width="1" stroke-linecap="butt"/></clipPath>
    <filter id="O" x="-.201" width="1.401" y="-.234" height="1.468" color-interpolation-filters="sRGB"><feGaussianBlur stdDeviation="2.844"/></filter>
    <filter id="P" x="-.091" width="1.183" y="-.107" height="1.213" color-interpolation-filters="sRGB"><feGaussianBlur stdDeviation="1.297"/></filter>
    <filter id="Q" x="-.469" width="1.939" y="-.274" height="1.547" color-interpolation-filters="sRGB"><feGaussianBlur stdDeviation=".86"/></filter>
    <filter id="R" x="-.604" width="2.208" y="-.482" height="1.965" color-interpolation-filters="sRGB"><feGaussianBlur stdDeviation="2.64"/></filter>
    <filter id="S" color-interpolation-filters="sRGB"><feGaussianBlur stdDeviation="2.209"/></filter>
    <clipPath id="T"><path d="M516.006 331.876c.91 1.597-1.57 3.388-2.816 4.738-2.742 2.973-6.45 4.902-9.896 7.02-5.914 3.635-12.62 5.903-18.42 9.717-3.883 2.553-7.328 5.722-10.86 8.742-3.022 2.584-5.482 5.876-8.832 8.018s-7.044 4.154-10.99 4.65c-4.783.6-9.872-.256-14.3-2.164-3.095-1.334-6.16-3.38-7.963-6.23-1.813-2.865-2.06-6.538-2.233-9.924-.307-6.06 1.363-12.06 2.178-18.073.68-5.002 1.853-9.943 2.26-14.975.74-9.142-.78-18.408.32-27.513.355-2.937-.18-6.66 2.012-8.644 2.038-1.845 5.43-1.12 8.18-1.063 3.345.07 6.632.95 9.89 1.717 2.056.483 3.998 1.41 6.072 1.81 3.44.663 6.966 1.066 10.467.952 3.785-.124 7.437-1.796 11.224-1.765 1.552.013 3.124.282 4.586.8 1.483.525 2.988 1.206 4.123 2.295.865.83 1.43 1.957 1.88 3.07.672 1.662.894 3.478 1.167 5.25.242 1.574-.153 3.27.414 4.76 1.83 4.8 5.577 8.727 9.225 12.343 1.743 1.935 4.03 3.534 6.167 4.828 2.27 1.374 4.368 2.45 5.463 4.816.66 1.485-.544 3.76.683 4.826z" fill="url(#E)" fill-opacity="1" stroke="none"/></clipPath>
    <clipPath id="U"><path d="M516.006 331.876c.91 1.597-1.57 3.388-2.816 4.738-2.742 2.973-6.45 4.902-9.896 7.02-5.914 3.635-12.62 5.903-18.42 9.717-3.883 2.553-7.328 5.722-10.86 8.742-3.022 2.584-5.482 5.876-8.832 8.018s-7.044 4.154-10.99 4.65c-4.783.6-9.872-.256-14.3-2.164-3.095-1.334-6.16-3.38-7.963-6.23-1.813-2.865-2.06-6.538-2.233-9.924-.307-6.06 1.363-12.06 2.178-18.073.68-5.002 1.853-9.943 2.26-14.975.74-9.142-.78-18.408.32-27.513.355-2.937-.18-6.66 2.012-8.644 2.038-1.845 5.43-1.12 8.18-1.063 3.345.07 6.632.95 9.89 1.717 2.056.483 3.998 1.41 6.072 1.81 3.44.663 6.966 1.066 10.467.952 3.785-.124 7.437-1.796 11.224-1.765 1.552.013 3.124.282 4.586.8 1.483.525 2.988 1.206 4.123 2.295.865.83 1.43 1.957 1.88 3.07.672 1.662.894 3.478 1.167 5.25.242 1.574-.153 3.27.414 4.76 1.83 4.8 5.577 8.727 9.225 12.343 1.743 1.935 4.03 3.534 6.167 4.828 2.27 1.374 4.368 2.45 5.463 4.816.66 1.485-.544 3.76.683 4.826z" fill="url(#E)" fill-opacity="1" stroke="none"/></clipPath>
    <filter id="V" x="-.145" width="1.29" y="-.143" height="1.286" color-interpolation-filters="sRGB"><feGaussianBlur stdDeviation="4.779"/></filter>
    <clipPath id="W"><path d="M511.827 331.9c.795 1.296-1.374 2.75-2.464 3.845-2.4 2.413-5.644 3.978-8.66 5.697-5.174 2.95-11.04 4.8-16.116 7.885-3.397 2.072-6.41 4.644-9.502 7.094-2.644 2.097-4.796 4.77-7.728 6.506s-6.163 3.37-9.616 3.774c-4.185.488-8.637-.208-12.5-1.756-2.708-1.083-5.4-2.744-6.967-5.055-1.586-2.325-1.803-5.305-1.953-8.053-.27-4.918 1.192-9.787 1.906-14.666.594-4.06 1.62-8.07 1.977-12.152.647-7.418-.682-14.938.28-22.327.3-2.383-.158-5.404 1.76-7.014 1.783-1.497 4.75-.9 7.156-.862 2.927.058 5.803.772 8.652 1.393 1.8.392 3.498 1.145 5.313 1.47 3 .538 6.094.865 9.158.772 3.312-.1 6.506-1.458 9.82-1.432 1.358.01 2.733.23 4.013.65 1.297.426 2.614.98 3.607 1.862.757.674 1.25 1.588 1.644 2.5.588 1.35.782 2.822 1.02 4.26.212 1.277-.134 2.655.363 3.862 1.6 3.895 4.88 7.082 8.07 10.016 1.525 1.57 3.526 2.868 5.396 3.918 1.985 1.115 3.82 1.988 4.78 3.908.577 1.205-.476 3.052.598 3.917z" fill="url(#D)" fill-opacity="1" stroke="none"/></clipPath>
    <filter id="X" x="-.115" width="1.231" y="-.125" height="1.25" color-interpolation-filters="sRGB"><feGaussianBlur stdDeviation="3.173"/></filter>
    <filter id="Y" x="-.021" width="1.042" y="-.129" height="1.259" color-interpolation-filters="sRGB"><feGaussianBlur stdDeviation=".479"/></filter>
    <filter id="Z" x="-.178" width="1.355" y="-.159" height="1.319" color-interpolation-filters="sRGB"><feGaussianBlur stdDeviation=".901"/></filter>
    <filter height="1.116" y="-.058" width="2.633" x="-.817" id="a" color-interpolation-filters="sRGB"><feGaussianBlur stdDeviation="1.446"/></filter>
    <linearGradient id="b" xlink:href="#Ac"><stop offset="0"/><stop offset="1" stop-opacity=".25"/></linearGradient>
    <filter id="c" color-interpolation-filters="sRGB"><feGaussianBlur stdDeviation=".785"/></filter>
    <filter id="d" color-interpolation-filters="sRGB"><feGaussianBlur stdDeviation="1.138"/></filter>
    <filter id="e" color-interpolation-filters="sRGB"><feGaussianBlur stdDeviation=".643"/></filter>
    <clipPath id="f"><path d="M304.847 225.45c6.016 4.923 9.777 12.317 10.943 20.003 1.825 12.03-2.346 24.075-6.446 35.533-.817 2.285-1.64 4.6-1.965 6.995s-.12 4.948 1.03 7.086c1.303 2.425 3.732 4.125 6.367 4.923 2.59.784 5.394.76 8.015.092s5.06-1.968 7.187-3.64c5.48-4.3 8.758-10.986 10-17.844s.64-13.93-.55-20.798c-1.623-9.37-4.31-18.54-7.74-27.408-2.518-6.507-5.468-12.91-9.618-18.52-4.046-5.47-9.162-10.1-13.103-15.635-2.732-3.844-4.9-8.13-8.192-11.508-1.646-1.69-3.577-3.135-5.77-4s-4.664-1.124-6.933-.482c-1.505.426-2.892 1.237-4.038 2.3s-2.053 2.376-2.693 3.803c-1.28 2.853-1.477 6.112-.965 9.198.66 3.983 2.444 7.693 4.466 11.19 2.274 3.932 4.918 7.72 8.384 10.654 3.6 3.047 7.962 5.074 11.61 8.06" fill="none" stroke="#c17d11" stroke-linejoin="miter" stroke-opacity="1" stroke-width="1" stroke-linecap="butt"/></clipPath>
    <filter id="g" x="-.118" width="1.235" y="-.04" height="1.08" color-interpolation-filters="sRGB"><feGaussianBlur stdDeviation="1.352"/></filter>
    <clipPath id="h"><path d="M54.232 122.362c-3.792 4.79-8.518 11.69-8.193 17.25s3.86 13.935 8.375 16 5.754.013 8.33-2.5 3.86-7.348 4.006-12.25-3.035-11.92-5.44-15.25-3.287-8.04-7.08-3.25z" fill="url(#B)" fill-opacity="1" stroke="none"/></clipPath>
    <filter height="1.43" y="-.215" width="1.31" x="-.155" id="i" color-interpolation-filters="sRGB"><feGaussianBlur stdDeviation=".899"/></filter>
    <filter id="j" color-interpolation-filters="sRGB"><feGaussianBlur stdDeviation=".758"/></filter>
    <filter id="k" x="-.161" width="1.322" y="-.13" height="1.261" color-interpolation-filters="sRGB"><feGaussianBlur stdDeviation=".849"/></filter>
    <linearGradient id="l" xlink:href="#Ac"><stop offset="0" stop-color="#3a2903"/><stop offset=".555" stop-color="#735208"/><stop offset="1" stop-color="#ac8c04"/></linearGradient>
    <filter id="m" color-interpolation-filters="sRGB"><feGaussianBlur stdDeviation=".11"/></filter>
    <filter id="n" x="-.116" width="1.233" y="-.106" height="1.211" color-interpolation-filters="sRGB"><feGaussianBlur stdDeviation=".11"/></filter>
    <filter height="1.272" y="-.136" width="1.215" x="-.107" id="o" color-interpolation-filters="sRGB"><feGaussianBlur stdDeviation=".264"/></filter>
    <filter height="1.292" y="-.146" width="1.469" x="-.234" id="p" color-interpolation-filters="sRGB"><feGaussianBlur stdDeviation=".513"/></filter>
    <linearGradient id="q" xlink:href="#Ac"><stop offset="0" stop-color="#646464" stop-opacity="0"/><stop offset=".306" stop-color="#646464" stop-opacity=".583"/><stop offset=".47" stop-color="#646464"/><stop offset=".728" stop-color="#646464" stop-opacity=".257"/><stop offset="1" stop-color="#646464" stop-opacity="0"/></linearGradient>
    <filter id="r" color-interpolation-filters="sRGB"><feGaussianBlur stdDeviation=".135"/></filter>
    <filter id="s" color-interpolation-filters="sRGB"><feGaussianBlur stdDeviation=".148"/></filter>
    <clipPath id="t"><path d="M85.75 122.362c-2.547 2.127-5.208 4.6-6.25 7.75-1.31 3.96-1.633 8.917.5 12.5 3.92 6.582 12.384 13.85 19.75 11.75 4.875-1.39 6.107-8.5 7-13.5.59-3.307.596-7.193-1.25-10-3.612-5.493-10.427-9.894-17-10-1.044-.017-1.95.83-2.75 1.5z" fill="url(#A)" fill-opacity="1" stroke="none"/></clipPath>
    <filter height="1.418" y="-.209" width="1.316" x="-.158" id="u" color-interpolation-filters="sRGB"><feGaussianBlur stdDeviation=".249"/></filter>
    <filter height="1.363" y="-.181" width="1.357" x="-.179" id="v" color-interpolation-filters="sRGB"><feGaussianBlur stdDeviation=".519"/></filter>
    <filter id="w" x="-.292" width="1.584" y="-.308" height="1.617" color-interpolation-filters="sRGB"><feGaussianBlur stdDeviation="1.74"/></filter>
    <filter height="1.215" y="-.107" width="1.108" x="-.054" id="x" color-interpolation-filters="sRGB"><feGaussianBlur stdDeviation="1.361"/></filter>
    <filter id="y" color-interpolation-filters="sRGB"><feGaussianBlur stdDeviation=".932"/></filter>
    <filter height="1.258" y="-.129" width="1.153" x="-.076" id="z" color-interpolation-filters="sRGB"><feGaussianBlur stdDeviation="2.036"/></filter>
    <radialGradient id="AA" gradientTransform="matrix(0.81524244,-0.03431182,0.02961133,1.2479887,-208.43744,-35.542647)" cx="223.196" cy="137.661" fx="223.196" fy="137.661" r="14.572" xlink:href="#Ac"><stop offset="0" stop-color="#fefefc"/><stop offset=".757" stop-color="#fefefc"/><stop offset="1" stop-color="#d4d4d4"/></radialGradient>
    <radialGradient id="AB" gradientTransform="matrix(1.0857794,-0.03431182,0.03943781,1.2479887,-233.54194,-35.542647)" cx="223.196" cy="137.661" fx="223.196" fy="137.661" r="14.572" xlink:href="#Ac"><stop offset="0" stop-color="#fefefc"/><stop offset=".757" stop-color="#fefefc"/><stop offset="1" stop-color="#d4d4d4"/></radialGradient>
    <radialGradient id="AC" gradientTransform="matrix(0.69784558,-0.50717348,0.46034105,0.63340638,-271.10191,183.03011)" cx="275.538" cy="150.651" fx="275.538" fy="150.651" r="15.382" xlink:href="#Ac"><stop offset="0" stop-color="#020204"/><stop offset=".734" stop-color="#020204"/><stop offset="1" stop-color="#5c5c5c"/></radialGradient>
    <linearGradient id="AD" x1="303.016" y1="132.77" x2="309.733" y2="140.725" xlink:href="#Ac"><stop offset="0" stop-color="#949494" stop-opacity=".392"/><stop offset=".5" stop-color="#949494"/><stop offset="1" stop-color="#949494" stop-opacity=".392"/></linearGradient>
    <linearGradient id="AE" x1="87.25" y1="119.987" x2="108.625" y2="132.487" xlink:href="#Ac"><stop offset="0" stop-color="#747474"/><stop offset=".125" stop-color="#8c8c8c"/><stop offset=".25" stop-color="#a4a4a4"/><stop offset=".5" stop-color="#d4d4d4"/><stop offset=".619" stop-color="#d4d4d4"/><stop offset="1" stop-color="#7c7c7c"/></linearGradient>
    <linearGradient xlink:href="#q" id="AF" x1="15.51" y1="105.562" x2="29.741" y2="118.997"/>
    <linearGradient xlink:href="#q" id="AG" x1="-25.773" y1="106.666" x2="-12.373" y2="119.571"/>
    <linearGradient id="AH" x1="164.049" y1="132.063" x2="169.882" y2="142.493" xlink:href="#Ac"><stop offset="0" stop-color="#757574" stop-opacity="0"/><stop offset=".263" stop-color="#757574"/><stop offset=".5" stop-color="#757574"/><stop offset="1" stop-color="#757574" stop-opacity="0"/></linearGradient>
    <radialGradient id="AI" gradientTransform="matrix(0.93618683,-0.38640412,0.27133164,0.65738721,-244.47527,146.7229)" cx="294.485" cy="193.099" fx="294.485" fy="193.099" r="31.111" xlink:href="#Ac"><stop offset="0" stop-color="#d2940a"/><stop offset=".751" stop-color="#d89c08"/><stop offset=".866" stop-color="#b67e07"/><stop offset="1" stop-color="#946106"/></radialGradient>
    <linearGradient id="AJ" x1="46.857" y1="158.314" x2="103.337" y2="157.872" xlink:href="#Ac"><stop offset="0" stop-color="#ad780a"/><stop offset=".12" stop-color="#d89e08"/><stop offset=".255" stop-color="#edb80b"/><stop offset=".392" stop-color="#ebc80d"/><stop offset=".527" stop-color="#f5d838"/><stop offset=".769" stop-color="#f6d811"/><stop offset="1" stop-color="#f5cd31"/></linearGradient>
    <radialGradient xlink:href="#l" id="AK" gradientTransform="matrix(1.0000004,0,0,0.5833264,-3.4574816e-5,61.416192)" cx="77.672" cy="147.093" fx="77.672" fy="147.093" r="3.23"/>
    <radialGradient xlink:href="#l" id="AL" gradientTransform="matrix(1,0,0,1.0751189,0,-11.094161)" cx="63.125" cy="147.441" fx="63.125" fy="147.441" r="1.535"/>
    <linearGradient id="AM" x1="243.031" y1="157.018" x2="243.469" y2="159.768" xlink:href="#Ac"><stop offset="0" stop-color="#f5ce2d"/><stop offset="1" stop-color="#d79b08"/></linearGradient>
    <radialGradient id="AN" gradientTransform="matrix(0.20141143,-0.03316079,0.03065006,0.18616184,-3.1263574,114.03586)" cx="268.07" cy="126.535" fx="268.07" fy="126.535" r="35.511" xlink:href="#Ac"><stop offset="0" stop-color="#c8c8c8"/><stop offset="1" stop-color="#797978"/></radialGradient>
    <radialGradient id="AO" gradientTransform="matrix(-0.69844216,0,0,0.76335815,166.3057,50.219935)" cx="336.224" cy="220.538" fx="336.224" fy="220.538" r="27.391" xlink:href="#Ac"><stop offset="0"/><stop offset="1" stop-opacity=".25"/></radialGradient>
    <radialGradient xlink:href="#b" id="AP" gradientTransform="matrix(1,0,0,0.76335815,-289,41.219938)" cx="312.145" cy="236.366" fx="312.145" fy="236.366" r="27.391"/>
    <radialGradient xlink:href="#b" id="AQ" gradientTransform="matrix(1,0,0,1.0692348,-289,-23.860302)" cx="275.554" cy="225.135" fx="275.554" fy="225.135" r="10.845"/>
    <linearGradient id="AR" x1="28.286" y1="323.901" x2="31.982" y2="351.487" xlink:href="#Ac"><stop offset="0"/><stop offset="1" stop-opacity="0"/></linearGradient>
    <linearGradient id="AS" x1="442.039" y1="371.544" x2="490.122" y2="293.585" xlink:href="#Ac"><stop offset="0" stop-color="#3e2a06"/><stop offset="1" stop-color="#ad780a"/></linearGradient>
    <linearGradient id="AT" x1="45.164" y1="289.589" x2="43.75" y2="302.317" xlink:href="#Ac"><stop offset="0" stop-color="#f3cd0c"/><stop offset="1" stop-color="#f3cd0c" stop-opacity="0"/></linearGradient>
    <radialGradient id="AU" gradientTransform="matrix(1.3082075,0.35053296,-0.36795399,1.3732236,-310.50935,-240.34915)" cx="363.34" cy="303.415" fx="363.34" fy="303.415" r="16.846" xlink:href="#Ac"><stop offset="0" stop-color="#110800"/><stop offset=".591" stop-color="#a65a00" stop-opacity=".8"/><stop offset="1" stop-color="#ff921e" stop-opacity="0"/></radialGradient>
    <radialGradient id="AV" gradientTransform="matrix(1.3082075,0.35053296,-0.36795399,1.3732236,-310.50935,-240.34915)" cx="363.34" cy="303.415" fx="363.34" fy="303.415" r="16.846" xlink:href="#Ac"><stop offset="0" stop-color="#110800"/><stop offset=".591" stop-color="#a65a00" stop-opacity=".8"/><stop offset="1" stop-color="#ff921e" stop-opacity="0"/></radialGradient>
    <radialGradient id="AW" gradientTransform="matrix(0.36025223,0.15680447,-0.07246786,0.16649214,260.61683,181.93825)" cx="382.235" cy="246.858" fx="382.235" fy="246.858" r="20.538" xlink:href="#Ac"><stop offset="0" stop-color="#7c7c7c"/><stop offset="1" stop-color="#7c7c7c" stop-opacity=".33"/></radialGradient>
    <linearGradient id="AX" x1="358.5" y1="279.362" x2="361.5" y2="279.237" xlink:href="#Ac"><stop offset="0" stop-color="#7c7c7c"/><stop offset="1" stop-color="#7c7c7c" stop-opacity=".33"/></linearGradient>
    <linearGradient id="AY" x1="123.134" y1="301.54" x2="170.864" y2="381.62" xlink:href="#Ac"><stop offset="0" stop-color="#b98309"/><stop offset="1" stop-color="#382605"/></linearGradient>
    <linearGradient id="AZ" x1="171.04" y1="322.223" x2="186.066" y2="350.508" xlink:href="#Ac"><stop offset="0" stop-color="#ebc40c"/><stop offset="1" stop-color="#ebc40c" stop-opacity="0"/></linearGradient>
    <path id="Aa" d="M71.484 295.64c-.563-1.102-1.587-1.926-2.73-2.403s-2.397-.63-3.634-.62c-2.475.02-4.935.664-7.4.45-2.083-.18-4.06-.963-6.1-1.457-2.097-.5-4.322-.7-6.405-.143-2.226.606-4.19 2.094-5.42 4.045-1.084 1.72-1.6 3.753-1.76 5.78s.013 4.066.218 6.09c.148 1.464.314 2.93.668 4.36s.904 2.823 1.766 4.015c1.24 1.716 3.083 2.94 5.07 3.675a14.09 14.09 0 0 0 10.132-.177c5.66-2.457 10.45-6.864 13.37-12.3 1.045-1.946 1.857-4.02 2.382-6.165.208-.853.372-1.722.38-2.6s-.147-1.77-.546-2.55z"/>
    <path id="Ab" d="M362.22 276.456a13.48 13.48 0 0 0-1.625.188c-3.47.617-6.647 2.81-8.437 5.844a12.38 12.38 0 0 0-1.656 7.156c.073-1.742.53-3.447 1.375-4.97 1.434-2.582 4.032-4.53 6.938-5.062 1.8-.328 3.632-.13 5.438.094 1.733.216 3.48.443 5.188.813 2.64.572 5.254 1.45 7.47 3 .516.36 1 .77 1.406 1.25s.722 1.038.844 1.656c.178.904-.08 1.853-.53 2.656s-1.065 1.507-1.72 2.156c-.53.526-1.095 1.034-1.656 1.53 2.56-.496 5.152-1.198 7.28-2.687.9-.63 1.715-1.385 2.25-2.344s.762-2.12.5-3.187c-.177-.72-.57-1.382-1.062-1.937s-1.08-1.012-1.687-1.437c-2.68-1.877-5.815-3.08-9.062-3.47-2.08-.383-4.18-.706-6.28-.97-1.643-.206-3.32-.373-4.97-.28z"/>
    <linearGradient id="Ac" gradientUnits="userSpaceOnUse"/>
  </defs>
  <g transform="matrix(.107114 0 0 .107114 16.03457 -7.17531)">
    <g fill="#020204">
      <path d="M61.524 172.734c3.256 7.09 6.89 14.003 10.12 21.106 6.216 13.67 10.937 28.103 12.898 42.99S85.65 267.09 81 281.364c-5.258 16.113-15.24 30.448-27.47 42.18-14.468 13.88-33.04 24.58-53.074 25.37-13.054.514-26.05-3.218-37.61-9.303-9.715-5.113-18.584-11.927-25.66-20.32s-12.33-18.387-14.763-29.093c-2.996-13.183-1.64-27.178 2.894-39.914 3.243-9.108 8.05-17.588 11.472-26.63 3.74-9.88 5.828-20.43 10.783-29.76 4.49-8.46 11.226-15.686 14.804-24.57 2.137-5.306 3.064-11.005 4.444-16.557s3.312-11.144 7.07-15.457c4.53-5.197 11.343-8.014 18.19-8.805s13.778.277 20.498 1.81c5.35 1.22 10.635 2.735 15.805 4.574 4.413 1.57 8.786 3.398 12.602 6.114 5.2 3.7 9.16 8.91 12.315 14.458s5.57 11.475 8.234 17.274z"/>
      <path d="M4.036 349.04c5.5.32 10.99.854 16.44 1.677a165.46 165.46 0 0 1 14.26 2.812c7.377 1.788 14.728 4.068 22.316 4.284 1.997.057 4-.032 5.96-.466s3.842-1.225 5.405-2.47c2.33-1.857 3.8-4.658 4.357-7.587s.208-5.976-.65-8.83c-1.715-5.706-5.4-10.575-8.437-15.696-1.745-2.932-3.3-5.98-5.19-8.82s-4.15-5.5-7.02-7.35c-3.968-2.558-8.888-3.392-13.585-2.924s-9.2 2.165-13.392 4.336c-5.876 3.042-11.407 7.22-14.61 13.01-1.115 2.015-1.925 4.18-2.872 6.28s-2.056 4.166-3.66 5.818c-1.79 1.842-4.112 3.084-5.963 4.863-.925.9-1.735 1.925-2.2 3.118s-.592 2.556-.16 3.765c.297.83.84 1.558 1.51 2.13s1.462.99 2.293 1.28c1.66.584 3.45.67 5.207.772z"/>
      <path d="M-12.313 348.685c-4.584.106-9.12.926-13.6 1.854-4.292.887-8.564 1.875-12.804 2.988-7.154 1.878-14.317 4.127-21.712 4.284-1.946.04-3.906-.065-5.803-.504s-3.733-1.22-5.255-2.434c-2.325-1.854-3.803-4.65-4.35-7.572s-.213-5.964.635-8.814c1.697-5.7 5.336-10.58 8.316-15.726 1.693-2.925 3.187-5.966 5.018-8.807s4.036-5.507 6.86-7.364c3.848-2.53 8.647-3.387 13.23-2.936s8.975 2.14 13.017 4.348c5.706 3.117 10.917 7.406 14.216 13 2.315 3.93 3.65 8.425 6.356 12.098 1.457 1.978 3.3 3.686 4.5 5.823.606 1.068 1.05 2.245 1.153 3.47s-.15 2.498-.84 3.515c-.455.673-1.087 1.217-1.793 1.618s-1.485.665-2.28.83c-1.6.332-3.23.28-4.855.32zM-37.927 157.8c-.644-7.75-.5-15.543-.78-23.315-.278-7.473-.966-14.942-.715-22.416.256-7.6 1.53-15.3 4.914-22.13s8.88-12.608 15.585-16.222c6.3-3.4 13.566-4.853 20.734-4.775 9.72.106 19.464 3.042 27.334 8.744C34.08 81.258 38.23 85.863 41.504 91c2.793 4.385 4.963 9.174 6.325 14.2 2.793 10.3 2.13 21.148 2.674 31.796.515 10.092 2.13 20.16 1.58 30.25-.12 2.2-.356 4.434-1.333 6.4-.952 1.915-2.568 3.455-4.425 4.517s-3.947 1.666-6.06 1.992c-4.227.652-8.55.222-12.808.617-6.18.573-12.075 2.865-18.208 3.814-7.3 1.13-14.757.33-22.148.034-2.96-.118-5.93-.155-8.868-.524s-5.87-1.08-8.484-2.474c-1.6-.858-3.093-1.975-4.295-3.35s-2.12-3-2.577-4.777c-.687-2.653-.325-5.446-.315-8.187.01-2.506-.282-5.003-.5-7.5z"/>
    </g>
    ...
  </g>
</svg>
