<svg xmlns="http://www.w3.org/2000/svg" viewBox="0 0 32 32">
  <g transform="matrix(.107114 0 0 .107114 16.03457 -7.17531)">
    <path d="M61.524 172.734c3.256 7.09 6.89 14.003 10.12 21.106 6.216 13.67 10.937 28.103 12.898 42.99S85.65 267.09 81 281.364c-5.258 16.113-15.24 30.448-27.47 42.18-14.468 13.88-33.04 24.58-53.074 25.37-13.054.514-26.05-3.218-37.61-9.303-9.715-5.113-18.584-11.927-25.66-20.32s-12.33-18.387-14.763-29.093c-2.996-13.183-1.64-27.178 2.894-39.914 3.243-9.108 8.05-17.588 11.472-26.63 3.74-9.88 5.828-20.43 10.783-29.76 4.49-8.46 11.226-15.686 14.804-24.57 2.137-5.306 3.064-11.005 4.444-16.557s3.312-11.144 7.07-15.457c4.53-5.197 11.343-8.014 18.19-8.805s13.778.277 20.498 1.81c5.35 1.22 10.635 2.735 15.805 4.574 4.413 1.57 8.786 3.398 12.602 6.114 5.2 3.7 9.16 8.91 12.315 14.458s5.57 11.475 8.234 17.274z" fill="#000000"/>
    <path d="M4.036 349.04c5.5.32 10.99.854 16.44 1.677a165.46 165.46 0 0 1 14.26 2.812c7.377 1.788 14.728 4.068 22.316 4.284 1.997.057 4-.032 5.96-.466s3.842-1.225 5.405-2.47c2.33-1.857 3.8-4.658 4.357-7.587s.208-5.976-.65-8.83c-1.715-5.706-5.4-10.575-8.437-15.696-1.745-2.932-3.3-5.98-5.19-8.82s-4.15-5.5-7.02-7.35c-3.968-2.558-8.888-3.392-13.585-2.924s-9.2 2.165-13.392 4.336c-5.876 3.042-11.407 7.22-14.61 13.01-1.115 2.015-1.925 4.18-2.872 6.28s-2.056 4.166-3.66 5.818c-1.79 1.842-4.112 3.084-5.963 4.863-.925.9-1.735 1.925-2.2 3.118s-.592 2.556-.16 3.765c.297.83.84 1.558 1.51 2.13s1.462.99 2.293 1.28c1.66.584 3.45.67 5.207.772z" fill="#000000"/>
    <path d="M-12.313 348.685c-4.584.106-9.12.926-13.6 1.854-4.292.887-8.564 1.875-12.804 2.988-7.154 1.878-14.317 4.127-21.712 4.284-1.946.04-3.906-.065-5.803-.504s-3.733-1.22-5.255-2.434c-2.325-1.854-3.803-4.65-4.35-7.572s-.213-5.964.635-8.814c1.697-5.7 5.336-10.58 8.316-15.726 1.693-2.925 3.187-5.966 5.018-8.807s4.036-5.507 6.86-7.364c3.848-2.53 8.647-3.387 13.23-2.936s8.975 2.14 13.017 4.348c5.706 3.117 10.917 7.406 14.216 13 2.315 3.93 3.65 8.425 6.356 12.098 1.457 1.978 3.3 3.686 4.5 5.823.606 1.068 1.05 2.245 1.153 3.47s-.15 2.498-.84 3.515c-.455.673-1.087 1.217-1.793 1.618s-1.485.665-2.28.83c-1.6.332-3.23.28-4.855.32z" fill="#000000"/>
    <path d="M-37.927 157.8c-.644-7.75-.5-15.543-.78-23.315-.278-7.473-.966-14.942-.715-22.416.256-7.6 1.53-15.3 4.914-22.13s8.88-12.608 15.585-16.222c6.3-3.4 13.566-4.853 20.734-4.775 9.72.106 19.464 3.042 27.334 8.744C34.08 81.258 38.23 85.863 41.504 91c2.793 4.385 4.963 9.174 6.325 14.2 2.793 10.3 2.13 21.148 2.674 31.796.515 10.092 2.13 20.16 1.58 30.25-.12 2.2-.356 4.434-1.333 6.4-.952 1.915-2.568 3.455-4.425 4.517s-3.947 1.666-6.06 1.992c-4.227.652-8.55.222-12.808.617-6.18.573-12.075 2.865-18.208 3.814-7.3 1.13-14.757.33-22.148.034-2.96-.118-5.93-.155-8.868-.524s-5.87-1.08-8.484-2.474c-1.6-.858-3.093-1.975-4.295-3.35s-2.12-3-2.577-4.777c-.687-2.653-.325-5.446-.315-8.187.01-2.506-.282-5.003-.5-7.5z" fill="#000000"/>
  </g>
</svg>
