<svg xmlns="http://www.w3.org/2000/svg" viewBox="33.9 0 444.2 512"><path d="m35.7 383.1-1.8-.9v1.8l1.8.9z" fill="#faa42f"/><path d="M35.7 319.1v-31.7l-1.8-.9v33.8z" fill-rule="evenodd" clip-rule="evenodd" fill="#ddb02a"/><path d="m57.7 331.9-22-12.8-1.8 1.2v61.9l1.8.9 22-12.8z" fill-rule="evenodd" clip-rule="evenodd" fill="#c47728"/><path d="m91 414.8 27.5 16.1v1.8L89.2 416z" fill="#f15933"/><path d="m57.7 370.3-22 12.8v1.8L89.2 416l1.8-1.2v-25.3z" fill="#f37132"/><path d="M35.7 223.7v-32l-1.8-.9v33.8z" fill="#d6e042"/><path d="m33.9 286.5 1.8.9 19.2-11q-1.35-10.2-1.2-20.4c0-7 .6-14.3 1.2-21.3l-19.2-11-1.8.9z" fill="#fcea3b"/><path d="m35.7 319.4 22 12.5L91 313v-25.6l-16.2-9.5c.3 4.6 1.2 9.1 2.1 13.7L59.2 302c-2.2-8.4-3.6-17-4.3-25.6l-19.2 11z" fill="#faa42f"/><path d="M91 414.8v-25.3l8.9-5.2-.3-.3c4.3 5.2 8.9 10 13.4 14.6 7.7 7.7 15.9 14.7 24.7 21l-19.2 11.3zm32.9-44.5 22.3 12.8v18.6q-10.35-7.5-19.2-16.8c-3.6-3.3-7-6.9-10.1-10.7z" fill="#f15933"/><path d="m201.5 478.5-27.8-15.8-1.5.9 29.3 17.1z" fill="#e22574"/><path d="m172.2 463.6 1.5-.9v-22.3c-12.7-5.6-24.8-12.5-36-20.7L118.4 431v1.8z" fill="#ef3839"/><path d="M35.7 128v-.9l-1.8.9v.9z" fill-rule="evenodd" clip-rule="evenodd" fill="#bbd64b"/><path d="M63.2 143.9 35.7 128l-1.8.9v61.9l1.8.9 27.5-15.9z" fill="#d6e042"/><path d="m35.7 223.7 19.2 11c2.1-19 6.8-37.7 14-55.4l-5.8-3.3-27.5 15.9v31.8zm39.1 9.1 16.2-9.1v-32l-4.9-2.8c-5.6 14.1-9.4 28.9-11.3 43.9" fill="#ffcf29"/><path d="m74.8 277.9 16.2 9.5 27.5-15.9v-32L91 223.7l-16.2 9.1c-1 7.7-1.5 15.4-1.5 23.2 0 7.3.5 14.7 1.5 21.9" fill="#faa42f"/><path d="M173.7 338.6v28.3l-27.5 16.2-22.3-12.8v-38.4l19.2-11z" fill="#f15933"/><path d="m173.7 462.7 27.8 15.8 27.8-15.8v-6.4c-19.5-2.7-38.2-7.9-55.6-15.9zm55.6-26.2V431l-27.8-16.1-16.2 9.4c14.1 6 28.9 10 44 12.2" fill-rule="evenodd" clip-rule="evenodd" fill="#ee438d"/><path d="M118.5 271.5 91 287.4V313l33 18.9 19.2-11v-35.3z" fill="#f37132"/><path d="m229.3 462.6-27.8 15.8v2.1l53.4 30.8 1.8-.9v-32z" fill="#cc3192"/><path d="m185.3 424.3 16.2-9.4v-31.7L173.7 367l-27.5 16.2v18.6c12 9.1 25.1 16.7 39.1 22.5" fill-rule="evenodd" clip-rule="evenodd" fill="#bd2025"/><path d="m256.7 510.5-1.8.9 1.2.6 1.5-.9z" fill="#9b3995"/><path d="m91 96-.9-.3-54.3 31.4v.9l27.5 15.9L91 128z" fill-rule="evenodd" clip-rule="evenodd" fill="#f1eb59"/><path d="m63.2 175.9 5.8 3.3c7-17.4 16.5-33.2 27.8-47.9L91 128l-27.8 15.9zm22.9 13 4.9 2.8 27.5-15.8v-32l-4.6-2.4c-11.6 14.3-20.9 30.3-27.8 47.4" fill="#fcea3b"/><path d="M143.2 225.2v-34.1l.9-.6-25.6-14.6L91 191.7v32l27.5 15.8z" fill="#faa42f"/><path d="M256.7 414.8v-29.3l-.6.3-29.9-17.1-24.7 14.3v31.7l27.8 16.1z" fill="#e22574"/><path d="M143.2 285.6v-60.3l-24.7 14.3v32z" fill-rule="evenodd" clip-rule="evenodd" fill="#f7975f"/><path d="m229.3 462.6 27.5 15.8 27.8-15.8v-6.7c-9.4 1.2-18.9 1.8-28.4 1.8-9 0-17.9-.5-26.9-1.5zm55.2-26.5v-5.2l-27.8-16.1-27.5 16.1v5.5c8.9 1.2 17.9 1.8 26.9 1.8 9.5.1 19-.6 28.4-2.1" fill="#cc3192"/><path d="m201.5 383.1 24.7-14.3-52.5-30.2V367z" fill-rule="evenodd" clip-rule="evenodd" fill="#d31f26"/><path d="m312 478.5-27.5-15.8-27.8 15.8v32l.9.6 54.3-31.4v-1.2z" fill-rule="evenodd" clip-rule="evenodd" fill="#73206a"/><path d="m91 96 27.5-15.9v-.9L90.1 95.7z" fill="#d6e042"/><path d="m91 128 5.8 3.3c5.2-6.4 10.7-12.2 16.2-18 7.9-7.9 16.5-15.2 25.6-21.6l-20.2-11.6L91 96zm22.9 13.4 4.6 2.5 27.8-15.9v-17.7q-10.35 7.5-19.2 16.8c-4.7 4.6-9 9.1-13.2 14.3" fill="#ffcf29"/><path d="M173.7 143.9 146.2 128l-27.8 15.9v32l25.6 14.6 29.6-17.1v-29.5z" fill="#faa42f"/><path d="M339.8 462.7 312 478.5v1.2l28.7-16.5z" fill-rule="evenodd" clip-rule="evenodd" fill="#853a96"/><path d="m312 383.1-25.3-14.9-29.9 17.4v29.3l27.8 16.1 27.5-16.1z" fill="#cc3192"/><path d="m284.5 462.6 27.5 15.8 27.8-15.8v-22.9c-17.6 8-36.2 13.4-55.3 16.2zm43.1-38.7-15.6-9.1-27.5 16.1v5.2c15-2.4 29.6-6.4 43.1-12.2" fill="#9b3995"/><path d="m118.4 80.1 20.2 11.6c11-7.9 22.8-14.6 35.1-20.1V48.1l-.6-.3-54.6 31.4z" fill="#ffcf29"/><path d="m146.2 128 27.5 15.9 27.8-15.9V96l-15-8.5c-14.7 5.8-28.1 13.7-40.3 22.9z" fill-rule="evenodd" clip-rule="evenodd" fill="#d98a26"/><path d="m339.8 462.7.9.6 54.3-31.4v-.9l-20.2-11.6c-11 7.9-22.8 14.8-35.1 20.4z" fill-rule="evenodd" clip-rule="evenodd" fill="#8f4f9f"/><path d="m201.5 128-27.8 15.9v29.6l53.4-30.8z" fill="#f37132"/><path d="m312 383.1 27.8-16.2v-29.3l-53.1 30.5z" fill-rule="evenodd" clip-rule="evenodd" fill="#d24b9b"/><path d="m312 414.8 15.6 9.1c14.2-6 27.6-13.9 39.7-23.5V383l-27.5-16.2-27.8 16.3z" fill="#b263a7"/><path d="m173.7 48.1 27.8-15.9v-.9l-28.4 16.5z" fill="#ffcf29"/><path d="m186.5 87.5 15 8.5 22.3-12.5v-7l1.2-.3c-13.2 2.3-26.1 6.1-38.5 11.3m37.2-42.4-22.3-12.8-27.8 15.9v23.5c16-7 32.8-12 50-14.9z" fill="#faa42f"/><path d="m374.9 419.4 20.2 11.6 27.8-16.1v-25.3l-33.3-19.2-22.3 12.8v17.4c3.7-2.4 6.7-5.2 10.1-7.9l17.7 10.1c-6.4 5.8-13.2 11.4-20.2 16.6" fill="#6b297a"/><path d="M422.8 414.8 395 430.9v.9l28.7-16.5z" fill="#782a8f"/><path d="m256.1 126.2.6.3v-24.1l-33-18.9L201.5 96v32l25.7 14.6z" fill="#f37132"/><path d="M389.5 370.3v-38.4L368.8 320v.9l-29 16.8V367l27.5 16.2z" fill="#9b3995"/><path d="M256.7 25.9V.6l-.6-.6-54.6 31.4v.9l22.3 12.8z" fill="#faa42f"/><path d="M256.7 102.4 290 83.5 312 96v32l-26.3 15.2-29-16.8z" fill="#f15933"/><path d="m478.1 383.1-22.3-12.8-33 19.2v25.3l.9.6L478 384z" fill="#782a8f"/><path d="M395.1 271.6v-32l-26.3-15.2v62.2z" fill-rule="evenodd" clip-rule="evenodd" fill="#a01664"/><path d="M339.8 143.9 312 128l-26.3 15.2 54 31.1v-30.4z" fill-rule="evenodd" clip-rule="evenodd" fill="#c02026"/><path d="M422.8 313v-25.6L395 271.5l-26.2 14.9V320l20.7 11.9z" fill="#9b3995"/><path d="m290 45.1 22-12.8 27.8 15.9v24.1c-8.3-3.8-16.9-6.9-25.7-9.5v20.4c4.3 1.2 8.5 2.8 12.5 4.6L312 96l-22-12.5z" fill="#f15933"/><path d="M426.5 321.2c.6-.9 1-2 1.2-3.1-.2 1.2-.6 2.2-1.2 3.1m1.8-4.2c4.4-12.3 7.3-25.1 8.9-38.1l-14.4 8.5V313l5.8 3.4zm27.5 14.9 22.3-12.8v-31.7l-20.8-11.9c-1.7 17.5-5.8 34.7-11.9 51.2l.3-.6z" fill-rule="evenodd" clip-rule="evenodd" fill="#9051a0"/><path d="m367.3 128-27.5 15.9v30.5l28.7 16.8 26.6-15.2v-32z" fill-rule="evenodd" clip-rule="evenodd" fill="#b01b4a"/><path d="M312 32.3 256.8.6v25.3L290 45.1z" fill-rule="evenodd" clip-rule="evenodd" fill="#c54627"/><path d="M422.9 223.7v-32l-27.8-15.8-26.6 15.2h.3v33.2l26.3 15.2z" fill-rule="evenodd" clip-rule="evenodd" fill="#a41768"/><path d="m312 128 27.8 15.9 27.5-15.9v-16.5c-12.4-9.8-26-17.8-40.6-23.8L312 96z" fill="#ef3839"/><path d="m395 271.5 27.8 15.9 14.3-8.5c1-7.6 1.5-15.2 1.5-22.9 0-8-.6-16.1-1.5-24.1l-14.4-8.2-27.7 15.8z" fill="#9b3995"/><path d="m457.3 275.5 20.8 11.9v-63.7L457 235.6q1.35 10.2 1.2 20.4c0 6.7-.3 13.1-.9 19.5" fill="#6b297a"/><path d="m367.2 128 27.8 15.9 3.4-1.8c-4-5.3-8.4-10.2-13.1-14.9-5.7-5.5-11.7-10.7-18-15.5V128zm48.3 4 7.3-4V96L395 80.1l-20.7 12.2c8.8 6.3 17.1 13.4 24.7 21 5.8 6 11.3 12.2 16.5 18.7" fill="#e22574"/><path d="M478.1 287.4v32z" fill="#782a8f"/><path d="m395 175.9 27.8 15.9 3.3-1.8c-6.6-17.3-16-33.5-27.8-47.8L395 144zm48.3 3.9 7-4v-32L422.8 128l-7.3 4c11.3 14.6 20.7 30.7 27.8 47.8" fill="#cc3192"/><path d="M374.3 92.3 395 80.1l-55.3-32v24.1c12.2 5.5 23.8 12.3 34.6 20.1" fill="#ef3839"/><path d="m422.8 223.7 14.4 8.2c-2-14.4-5.7-28.5-11-42.1l-3.4 1.8zm34.2 11.9 21.1-11.9v-32l-27.8-15.9-7 4c7 17.7 11.9 36.3 13.7 55.8" fill="#b263a7"/><path d="m450.3 143.9 27.8-15.9-55.3-32v32z" fill-rule="evenodd" clip-rule="evenodd" fill="#d1499a"/><path d="M450.3 143.9v32l27.8 15.9V128z" fill="#9b3995"/><path d="m478.1 319.1-22.3 12.8v38.4l22.3 12.8z" fill-rule="evenodd" clip-rule="evenodd" fill="#85459a"/><path d="M201.5 287.4v3.1l-2.7-1.5v-3zm27.8-15.9-27.8 15.9-2.7-1.5v-60.7l2.7-1.5 27.8 15.8z" fill="#f15933"/><path d="m256.7 319.1-2.8 1.8 2.1 1.2 2.8-1.8z" fill="#e22574"/><path d="m229.3 271.5-27.8 15.9v3.1L254 321l2.8-1.8v-31.7z" fill="#ef3839"/><path d="m312 287.4-27.5-15.8-27.8 15.8v31.7l2.1 1.2 53.1-30.8z" fill-rule="evenodd" clip-rule="evenodd" fill="#ee3f8a"/><path d="m284.5 239.5-27.8-15.8-27.5 15.8v32l27.5 15.9 27.8-15.9z" fill="#ef3839"/><path d="m313.2 224.3-1.2-.6-27.5 15.8v32l27.5 15.9 1.2-.6z" fill="#e22574"/><path d="M312 287.4v2.1l1.2-.6v-2.1z" fill="#cc3192"/><path d="M201.5 223.7v-2.1l-2.7 1.5v2.1z" fill="#f37132"/><path d="M256.7 191.7v32l-27.5 15.8-27.8-15.8v-2.1l53.4-30.8z" fill="#f15933"/><path d="m256.8 191.7-1.8-.9 1.2-.6 1.8.9z" fill-rule="evenodd" clip-rule="evenodd" fill="#f4805f"/><path d="m312 222.5-54-31.4-1.2.6v32l27.8 15.8 27.5-15.8v-1.2z" fill="#ef3839"/><path d="M313.2 224.3v-1.2l-1.2-.6v1.2z" fill="#e22574"/><path d="m275.7 53.3-18.9-11-18.9 11v21.9l18.9 11 18.9-11z" fill="#f37132"/><path d="m441.8 340.1-18.9-11-19.2 11V362l19.2 11 18.9-11z" fill-rule="evenodd" clip-rule="evenodd" fill="#552263"/><path d="m109.9 340.1-18.9-11-18.9 11v22L91 373l18.9-11z" fill="#f37132"/></svg>