<svg xmlns="http://www.w3.org/2000/svg" viewBox="0 0 16 15">
  <defs>
    <filter id="a" x="2.49348" y="-26.5423" width="69.0899" height="61.2525" filterUnits="userSpaceOnUse">
      <feGaussianBlur stdDeviation="3.89034"/>
    </filter>
    <filter id="b" x="28.7524" y="-32.0333" width="135.477" height="134.313" filterUnits="userSpaceOnUse">
      <feGaussianBlur stdDeviation="18.8078"/>
    </filter>
    <filter id="c" x="-62.2884" y="-21.9253" width="142.637" height="127.18" filterUnits="userSpaceOnUse">
      <feGaussianBlur stdDeviation="15.9884"/>
    </filter>
    <filter id="d" x="-62.2884" y="-21.9253" width="142.637" height="127.18" filterUnits="userSpaceOnUse">
      <feGaussianBlur stdDeviation="15.9884"/>
    </filter>
    <filter id="e" x="-52.5697" y="-20.8346" width="127.582" height="127.452" filterUnits="userSpaceOnUse">
      <feGaussianBlur stdDeviation="15.9884"/>
    </filter>
    <filter id="f" x="17.3619" y="45.4646" width="116.786" height="118.715" filterUnits="userSpaceOnUse">
      <feGaussianBlur stdDeviation="15.1937"/>
    </filter>
    <filter id="g" x="-7.44765" y="-60.4737" width="125.303" height="122.858" filterUnits="userSpaceOnUse">
      <feGaussianBlur stdDeviation="13.7698"/>
    </filter>
    <filter id="h" x="-27.7086" y="13.3597" width="157.119" height="162.029" filterUnits="userSpaceOnUse">
      <feGaussianBlur stdDeviation="12.297"/>
    </filter>
    <filter id="i" x="50.4638" y="16.981" width="87.3973" height="83.7738" filterUnits="userSpaceOnUse">
      <feGaussianBlur stdDeviation="11.0036"/>
    </filter>
    <filter id="j" x="34.2604" y="-28.457" width="116.701" height="104.506" filterUnits="userSpaceOnUse">
      <feGaussianBlur stdDeviation="9.29385"/>
    </filter>
    <filter id="k" x="-15.1522" y="-15.9493" width="77.2941" height="91.076" filterUnits="userSpaceOnUse">
      <feGaussianBlur stdDeviation="11.5027"/>
    </filter>
    <clipPath id="p">
      <path d="M 89.699204,93.694987 C 94.365903,97.195016 101.366,94.861698 94.949201,88.44499 75.699203,69.77829 79.782499,18.444981 55.8659,18.444981 c -23.916701,0 -19.833401,51.333309 -39.083399,70.000009 -6.9999897,6.999996 0.583299,8.750026 5.249998,5.249997 18.083403,-12.249992 16.9167,-33.833288 33.833401,-33.833288 16.916603,0 15.749999,21.583296 33.833304,33.833288 z"/>
    </clipPath>
  </defs>
  <g transform="scale(0.28886)">
    <g transform="translate(153.999,-167.764)">
      <path d="m -105.26502,216.1732 c 3.00216,2.25163 7.505419,0.75057 3.3774,-3.37739 -12.3838,-12.00856 -9.75696,-45.032 -25.14285,-45.032 -15.38595,0 -12.75911,33.02344 -25.14291,45.032 -4.50319,4.50319 0.37525,5.62902 3.3774,3.37739 11.63331,-7.88059 10.88276,-21.76543 21.76551,-21.76543 10.88269,0 10.1322,13.88484 21.76545,21.76543 z" fill="#3186ff"/>
      <g clip-path="url(#p)" transform="matrix(0.643314,0,0,0.643314,-162.97,155.898)">
        <g filter="url(#a)">
          <ellipse cx="22.7873" cy="26.8098" rx="22.7873" ry="26.8098" transform="matrix(-0.112784,0.99362,-0.99362,-0.112781,66.2473,-15.5344)" fill="#ffe432"/>
        </g>
        <g filter="url(#b)">
          <ellipse cx="96.491" cy="35.1231" rx="29.5007" ry="30.1492" transform="rotate(76.9243,96.491,35.1231)" fill="#fc413d"/>
        </g>
        <g filter="url(#c)">
          <ellipse cx="9.02988" cy="41.6647" rx="30.832" ry="39.9417" transform="rotate(74.1257,9.02988,41.6647)" fill="#00b95c"/>
        </g>
        <g filter="url(#d)">
          <ellipse cx="9.02988" cy="41.6647" rx="30.832" ry="39.9417" transform="rotate(74.1257,9.02988,41.6647)" fill="#00b95c"/>
        </g>
        <g filter="url(#e)">
          <ellipse cx="11.2212" cy="42.8915" rx="30.22" ry="33.2695" transform="rotate(45.6065,11.2212,42.8915)" fill="#00b95c"/>
        </g>
        <g filter="url(#f)">
          <ellipse cx="75.7546" cy="104.822" rx="29.0177" ry="27.943" transform="rotate(76.9243,75.7546,104.822)" fill="#3186ff"/>
        </g>
        <g filter="url(#g)">
          <ellipse cx="33.5661" cy="35.4043" rx="33.5661" ry="35.4043" transform="matrix(-0.409539,0.912293,-0.912294,-0.409537,101.25,-15.1674)" fill="#fbbc04"/>
        </g>
        <g filter="url(#h)">
          <path d="M 2.56802,149.695 C -15.8116,142.48 15.5987,83.1163 23.4093,63.2203 31.22,43.3244 52.4514,33.0447 70.831,40.26 c 18.3797,7.2153 40.165,46.9562 32.354,66.852 -7.8108,19.896 -82.2373,49.798 -100.617,42.583 z" fill="#3186ff"/>
        </g>
        <g filter="url(#i)">
          <path d="M 113.934,75.8079 C 109.013,81.5509 96.1724,78.6224 85.253,69.2667 74.3335,59.911 69.4704,47.6711 74.391,41.928 c 4.9206,-5.743 17.7615,-2.8144 28.681,6.5412 10.919,9.3557 15.783,21.5956 10.862,27.3387 z" fill="#749bff"/>
        </g>
        <g filter="url(#j)">
          <ellipse cx="92.611" cy="23.7962" rx="44.2411" ry="27.5016" transform="rotate(34.0763,92.611,23.7962)" fill="#fc413d"/>
        </g>
        <g filter="url(#k)">
          <ellipse cx="23.4949" cy="29.5887" rx="23.7071" ry="13.7869" transform="rotate(112.516,23.4949,29.5887)" fill="#ffee48"/>
        </g>
      </g>
    </g>
  </g>
</svg>
